<?xml version="1.0" encoding="UTF-8"?>
<svg xmlns="http://www.w3.org/2000/svg" xmlns:xlink="http://www.w3.org/1999/xlink" width="119.28pt" height="40.8pt" viewBox="0 0 119.28 40.8" version="1.2">
<defs>
<clipPath id="clip1">
  <path d="M 0 0.0234375 L 118.5625 0.0234375 L 118.5625 40.578125 L 0 40.578125 Z M 0 0.0234375 "/>
</clipPath>
<clipPath id="clip2">
  <path d="M 85 0.0234375 L 95 0.0234375 L 95 15 L 85 15 Z M 85 0.0234375 "/>
</clipPath>
<clipPath id="clip3">
  <path d="M 87 0.0234375 L 95 0.0234375 L 95 8 L 87 8 Z M 87 0.0234375 "/>
</clipPath>
<clipPath id="clip4">
  <path d="M 43 33 L 52 33 L 52 40.578125 L 43 40.578125 Z M 43 33 "/>
</clipPath>
</defs>
<g id="surface1">
<g clip-path="url(#clip1)" clip-rule="nonzero">
<path style=" stroke:none;fill-rule:nonzero;fill:rgb(100%,100%,100%);fill-opacity:1;" d="M 0 0.0234375 L 118.566406 0.0234375 L 118.566406 40.578125 L 0 40.578125 Z M 0 0.0234375 "/>
</g>
<path style="fill-rule:evenodd;fill:rgb(87.841797%,58.03833%,41.175842%);fill-opacity:1;stroke-width:0.48;stroke-linecap:butt;stroke-linejoin:miter;stroke:rgb(87.841797%,58.03833%,41.175842%);stroke-opacity:1;stroke-miterlimit:4;" d="M 20.112865 9.168731 L 18.022196 16.800459 L 15.888299 16.222774 L 17.951459 8.594976 Z M 20.112865 9.168731 " transform="matrix(0.994,0,0,0.994,0,0.023)"/>
<path style="fill-rule:evenodd;fill:rgb(87.841797%,58.03833%,41.175842%);fill-opacity:1;stroke-width:0.48;stroke-linecap:butt;stroke-linejoin:miter;stroke:rgb(87.841797%,58.03833%,41.175842%);stroke-opacity:1;stroke-miterlimit:4;" d="M 17.259809 17.594284 L 9.600572 19.610287 L 9.022887 17.47246 L 16.678194 15.432879 Z M 17.259809 17.594284 " transform="matrix(0.994,0,0,0.994,0,0.023)"/>
<path style="fill-rule:evenodd;fill:rgb(87.841797%,58.03833%,41.175842%);fill-opacity:1;stroke-width:0.48;stroke-linecap:butt;stroke-linejoin:miter;stroke:rgb(87.841797%,58.03833%,41.175842%);stroke-opacity:1;stroke-miterlimit:4;" d="M 17.762827 15.743335 L 23.327465 21.335482 L 21.771253 22.895624 L 16.175176 17.303477 Z M 17.762827 15.743335 " transform="matrix(0.994,0,0,0.994,0,0.023)"/>
<path style="fill-rule:evenodd;fill:rgb(89.01825%,61.959839%,47.058105%);fill-opacity:1;stroke-width:0.48;stroke-linecap:butt;stroke-linejoin:miter;stroke:rgb(89.01825%,61.959839%,47.058105%);stroke-opacity:1;stroke-miterlimit:4;" d="M 22.274271 21.048604 L 29.902069 19.032602 L 30.479754 21.166499 L 22.824447 23.182501 Z M 22.274271 21.048604 " transform="matrix(0.994,0,0,0.994,0,0.023)"/>
<path style="fill-rule:evenodd;fill:rgb(92.547607%,74.508667%,63.920593%);fill-opacity:1;stroke-width:0.48;stroke-linecap:butt;stroke-linejoin:miter;stroke:rgb(92.547607%,74.508667%,63.920593%);stroke-opacity:1;stroke-miterlimit:4;" d="M 30.982772 19.319479 L 36.574918 24.911626 L 34.991197 26.471768 L 29.399051 20.879621 Z M 30.982772 19.319479 " transform="matrix(0.994,0,0,0.994,0,0.023)"/>
<path style="fill-rule:evenodd;fill:rgb(92.547607%,74.508667%,63.920593%);fill-opacity:1;stroke-width:0.48;stroke-linecap:butt;stroke-linejoin:miter;stroke:rgb(92.547607%,74.508667%,63.920593%);stroke-opacity:1;stroke-miterlimit:4;" d="M 36.838217 25.992329 L 34.775057 33.624057 L 32.641159 33.046372 L 34.70432 25.414644 Z M 36.838217 25.992329 " transform="matrix(0.994,0,0,0.994,0,0.023)"/>
<path style="fill-rule:evenodd;fill:rgb(92.547607%,74.508667%,63.920593%);fill-opacity:1;stroke-width:0.48;stroke-linecap:butt;stroke-linejoin:miter;stroke:rgb(92.547607%,74.508667%,63.920593%);stroke-opacity:1;stroke-miterlimit:4;" d="M 35.494215 24.624748 L 43.153452 22.608746 L 43.703628 24.742643 L 36.0719 26.762575 Z M 35.494215 24.624748 " transform="matrix(0.994,0,0,0.994,0,0.023)"/>
<path style="fill-rule:evenodd;fill:rgb(92.155457%,73.332214%,62.744141%);fill-opacity:1;stroke-width:0.48;stroke-linecap:butt;stroke-linejoin:miter;stroke:rgb(92.155457%,73.332214%,62.744141%);stroke-opacity:1;stroke-miterlimit:4;" d="M 42.359627 23.375063 L 44.426717 15.743335 L 46.560614 16.32102 L 44.497453 23.952748 Z M 42.359627 23.375063 " transform="matrix(0.994,0,0,0.994,0,0.023)"/>
<path style="fill-rule:evenodd;fill:rgb(92.155457%,73.332214%,62.744141%);fill-opacity:1;stroke-width:0.48;stroke-linecap:butt;stroke-linejoin:miter;stroke:rgb(92.155457%,73.332214%,62.744141%);stroke-opacity:1;stroke-miterlimit:4;" d="M 45.216612 14.953439 L 52.84834 12.937437 L 53.426025 15.071334 L 45.770718 17.114845 Z M 45.216612 14.953439 " transform="matrix(0.994,0,0,0.994,0,0.023)"/>
<path style="fill-rule:evenodd;fill:rgb(92.155457%,73.332214%,62.744141%);fill-opacity:1;stroke-width:0.48;stroke-linecap:butt;stroke-linejoin:miter;stroke:rgb(92.155457%,73.332214%,62.744141%);stroke-opacity:1;stroke-miterlimit:4;" d="M 53.929043 13.224315 L 59.52119 18.816461 L 57.937469 20.396253 L 52.345322 14.784457 Z M 53.929043 13.224315 " transform="matrix(0.994,0,0,0.994,0,0.023)"/>
<path style="fill-rule:evenodd;fill:rgb(97.253418%,91.763306%,88.233948%);fill-opacity:1;stroke-width:0.48;stroke-linecap:butt;stroke-linejoin:miter;stroke:rgb(97.253418%,91.763306%,88.233948%);stroke-opacity:1;stroke-miterlimit:4;" d="M 58.440487 18.525654 L 66.099723 16.513581 L 66.649899 18.647479 L 59.014242 20.68706 Z M 58.440487 18.525654 " transform="matrix(0.994,0,0,0.994,0,0.023)"/>
<path style="fill-rule:evenodd;fill:rgb(97.253418%,91.763306%,88.233948%);fill-opacity:1;stroke-width:0.48;stroke-linecap:butt;stroke-linejoin:miter;stroke:rgb(97.253418%,91.763306%,88.233948%);stroke-opacity:1;stroke-miterlimit:4;" d="M 67.152918 16.800459 L 72.741134 22.412255 L 71.161343 23.976327 L 65.592775 18.360601 Z M 67.152918 16.800459 " transform="matrix(0.994,0,0,0.994,0,0.023)"/>
<path style="fill-rule:evenodd;fill:rgb(97.253418%,91.763306%,88.233948%);fill-opacity:1;stroke-width:0.48;stroke-linecap:butt;stroke-linejoin:miter;stroke:rgb(97.253418%,91.763306%,88.233948%);stroke-opacity:1;stroke-miterlimit:4;" d="M 71.664361 22.105728 L 79.319668 20.089726 L 79.893423 22.223623 L 72.238116 24.267134 Z M 71.664361 22.105728 " transform="matrix(0.994,0,0,0.994,0,0.023)"/>
<path style="fill-rule:evenodd;fill:rgb(97.253418%,91.763306%,88.233948%);fill-opacity:1;stroke-width:0.48;stroke-linecap:butt;stroke-linejoin:miter;stroke:rgb(97.253418%,91.763306%,88.233948%);stroke-opacity:1;stroke-miterlimit:4;" d="M 78.525843 20.856043 L 80.592933 13.224315 L 82.72683 13.801999 L 80.66367 21.457306 Z M 78.525843 20.856043 " transform="matrix(0.994,0,0,0.994,0,0.023)"/>
<path style="fill-rule:evenodd;fill:rgb(97.253418%,91.763306%,88.233948%);fill-opacity:1;stroke-width:0.48;stroke-linecap:butt;stroke-linejoin:miter;stroke:rgb(97.253418%,91.763306%,88.233948%);stroke-opacity:1;stroke-miterlimit:4;" d="M 81.382828 12.457998 L 89.038135 10.414487 L 89.592241 12.552314 L 81.960513 14.595825 Z M 81.382828 12.457998 " transform="matrix(0.994,0,0,0.994,0,0.023)"/>
<path style=" stroke:none;fill-rule:evenodd;fill:rgb(90.979004%,69.410706%,56.861877%);fill-opacity:1;" d="M 87.714844 11.164062 L 89.769531 3.550781 L 91.894531 4.128906 L 89.839844 11.738281 Z M 87.714844 11.164062 "/>
<g clip-path="url(#clip2)" clip-rule="nonzero">
<path style="fill:none;stroke-width:0.48;stroke-linecap:butt;stroke-linejoin:miter;stroke:rgb(90.979004%,69.410706%,56.861877%);stroke-opacity:1;stroke-miterlimit:4;" d="M 88.24431 11.208312 L 90.3114 3.549076 L 92.449227 4.13069 L 90.382137 11.785997 Z M 88.24431 11.208312 " transform="matrix(0.994,0,0,0.994,0,0.023)"/>
</g>
<path style="fill-rule:evenodd;fill:rgb(92.939758%,76.469421%,67.0578%);fill-opacity:1;stroke-width:0.48;stroke-linecap:butt;stroke-linejoin:miter;stroke:rgb(92.939758%,76.469421%,67.0578%);stroke-opacity:1;stroke-miterlimit:4;" d="M 90.099189 10.701364 L 95.687406 16.32102 L 94.103685 17.877232 L 88.535117 12.265436 Z M 90.099189 10.701364 " transform="matrix(0.994,0,0,0.994,0,0.023)"/>
<path style="fill-rule:evenodd;fill:rgb(92.939758%,76.469421%,67.0578%);fill-opacity:1;stroke-width:0.48;stroke-linecap:butt;stroke-linejoin:miter;stroke:rgb(92.939758%,76.469421%,67.0578%);stroke-opacity:1;stroke-miterlimit:4;" d="M 95.978213 17.374214 L 93.911123 25.029521 L 91.753647 24.455766 L 93.816807 16.800459 Z M 95.978213 17.374214 " transform="matrix(0.994,0,0,0.994,0,0.023)"/>
<path style="fill-rule:evenodd;fill:rgb(92.939758%,76.469421%,67.0578%);fill-opacity:1;stroke-width:0.48;stroke-linecap:butt;stroke-linejoin:miter;stroke:rgb(92.939758%,76.469421%,67.0578%);stroke-opacity:1;stroke-miterlimit:4;" d="M 93.624245 23.952748 L 99.192813 29.564544 L 97.632671 31.128615 L 92.040524 25.51289 Z M 93.624245 23.952748 " transform="matrix(0.994,0,0,0.994,0,0.023)"/>
<path style="fill-rule:evenodd;fill:rgb(92.939758%,76.469421%,67.0578%);fill-opacity:1;stroke-width:0.48;stroke-linecap:butt;stroke-linejoin:miter;stroke:rgb(92.939758%,76.469421%,67.0578%);stroke-opacity:1;stroke-miterlimit:4;" d="M 98.135689 29.281596 L 105.771347 27.238085 L 106.345102 29.375912 L 98.689795 31.415493 Z M 98.135689 29.281596 " transform="matrix(0.994,0,0,0.994,0,0.023)"/>
<path style="fill-rule:evenodd;fill:rgb(92.939758%,76.469421%,67.0578%);fill-opacity:1;stroke-width:0.48;stroke-linecap:butt;stroke-linejoin:miter;stroke:rgb(92.939758%,76.469421%,67.0578%);stroke-opacity:1;stroke-miterlimit:4;" d="M 106.84812 27.528892 L 112.440267 33.144618 L 110.856546 34.70476 L 105.287978 29.089034 Z M 106.84812 27.528892 " transform="matrix(0.994,0,0,0.994,0,0.023)"/>
<path style="fill-rule:evenodd;fill:rgb(92.939758%,76.469421%,67.0578%);fill-opacity:1;stroke-width:0.48;stroke-linecap:butt;stroke-linejoin:miter;stroke:rgb(92.939758%,76.469421%,67.0578%);stroke-opacity:1;stroke-miterlimit:4;" d="M 105.0011 28.03191 L 107.060331 20.376603 L 109.198158 20.954288 L 107.138927 28.609595 Z M 105.0011 28.03191 " transform="matrix(0.994,0,0,0.994,0,0.023)"/>
<path style="fill-rule:evenodd;fill:rgb(92.939758%,76.469421%,67.0578%);fill-opacity:1;stroke-width:0.48;stroke-linecap:butt;stroke-linejoin:miter;stroke:rgb(92.939758%,76.469421%,67.0578%);stroke-opacity:1;stroke-miterlimit:4;" d="M 107.351138 21.457306 L 101.762921 15.841581 L 103.319134 14.281439 L 108.91128 19.893234 Z M 107.351138 21.457306 " transform="matrix(0.994,0,0,0.994,0,0.023)"/>
<path style="fill-rule:evenodd;fill:rgb(97.253418%,91.763306%,88.233948%);fill-opacity:1;stroke-width:0.48;stroke-linecap:butt;stroke-linejoin:miter;stroke:rgb(97.253418%,91.763306%,88.233948%);stroke-opacity:1;stroke-miterlimit:4;" d="M 80.87981 14.305018 L 75.287663 8.689292 L 76.871385 7.12915 L 82.463531 12.740946 Z M 80.87981 14.305018 " transform="matrix(0.994,0,0,0.994,0,0.023)"/>
<path style="fill-rule:evenodd;fill:rgb(97.253418%,91.763306%,88.233948%);fill-opacity:1;stroke-width:0.48;stroke-linecap:butt;stroke-linejoin:miter;stroke:rgb(97.253418%,91.763306%,88.233948%);stroke-opacity:1;stroke-miterlimit:4;" d="M 76.368366 8.97617 L 68.70913 11.015751 L 68.158954 8.877924 L 75.794611 6.838343 Z M 76.368366 8.97617 " transform="matrix(0.994,0,0,0.994,0,0.023)"/>
<path style="fill-rule:evenodd;fill:rgb(92.155457%,73.332214%,62.744141%);fill-opacity:1;stroke-width:0.48;stroke-linecap:butt;stroke-linejoin:miter;stroke:rgb(92.155457%,73.332214%,62.744141%);stroke-opacity:1;stroke-miterlimit:4;" d="M 59.784488 19.893234 L 57.717398 27.528892 L 55.587431 26.951207 L 57.646661 19.319479 Z M 59.784488 19.893234 " transform="matrix(0.994,0,0,0.994,0,0.023)"/>
<path style="fill-rule:evenodd;fill:rgb(92.155457%,73.332214%,62.744141%);fill-opacity:1;stroke-width:0.48;stroke-linecap:butt;stroke-linejoin:miter;stroke:rgb(92.155457%,73.332214%,62.744141%);stroke-opacity:1;stroke-miterlimit:4;" d="M 56.951081 28.318788 L 49.295775 30.358369 L 48.71809 28.200893 L 56.373397 26.184891 Z M 56.951081 28.318788 " transform="matrix(0.994,0,0,0.994,0,0.023)"/>
<path style="fill-rule:evenodd;fill:rgb(92.155457%,73.332214%,62.744141%);fill-opacity:1;stroke-width:0.48;stroke-linecap:butt;stroke-linejoin:miter;stroke:rgb(92.155457%,73.332214%,62.744141%);stroke-opacity:1;stroke-miterlimit:4;" d="M 50.0896 29.564544 L 48.02251 37.200201 L 45.861104 36.626446 L 47.928194 28.990788 Z M 50.0896 29.564544 " transform="matrix(0.994,0,0,0.994,0,0.023)"/>
<path style="fill-rule:evenodd;fill:rgb(92.155457%,73.332214%,62.744141%);fill-opacity:1;stroke-width:0.48;stroke-linecap:butt;stroke-linejoin:miter;stroke:rgb(92.155457%,73.332214%,62.744141%);stroke-opacity:1;stroke-miterlimit:4;" d="M 48.215072 30.047912 L 42.646504 24.455766 L 44.206646 22.895624 L 49.802723 28.48777 Z M 48.215072 30.047912 " transform="matrix(0.994,0,0,0.994,0,0.023)"/>
<path style="fill-rule:evenodd;fill:rgb(97.253418%,91.763306%,88.233948%);fill-opacity:1;stroke-width:0.48;stroke-linecap:butt;stroke-linejoin:miter;stroke:rgb(97.253418%,91.763306%,88.233948%);stroke-opacity:1;stroke-miterlimit:4;" d="M 69.502955 10.221925 L 67.439795 17.853653 L 65.305898 17.279898 L 67.365128 9.64817 Z M 69.502955 10.221925 " transform="matrix(0.994,0,0,0.994,0,0.023)"/>
<path style="fill-rule:evenodd;fill:rgb(92.939758%,76.469421%,67.0578%);fill-opacity:1;stroke-width:0.48;stroke-linecap:butt;stroke-linejoin:miter;stroke:rgb(92.939758%,76.469421%,67.0578%);stroke-opacity:1;stroke-miterlimit:4;" d="M 102.839694 16.128458 L 95.184388 18.168039 L 94.610633 16.030213 L 102.265939 13.990631 Z M 102.839694 16.128458 " transform="matrix(0.994,0,0,0.994,0,0.023)"/>
<path style="fill-rule:evenodd;fill:rgb(87.841797%,58.03833%,41.175842%);fill-opacity:1;stroke-width:0.24;stroke-linecap:butt;stroke-linejoin:miter;stroke:rgb(87.841797%,58.03833%,41.175842%);stroke-opacity:1;stroke-miterlimit:4;" d="M 21.048164 8.901503 C 21.048164 11.593436 17.016159 11.593436 17.016159 8.901503 C 17.016159 6.2135 21.048164 6.2135 21.048164 8.901503 " transform="matrix(0.994,0,0,0.994,0,0.023)"/>
<path style="fill-rule:evenodd;fill:rgb(87.841797%,58.03833%,41.175842%);fill-opacity:1;stroke-width:0.24;stroke-linecap:butt;stroke-linejoin:miter;stroke:rgb(87.841797%,58.03833%,41.175842%);stroke-opacity:1;stroke-miterlimit:4;" d="M 18.985004 16.513581 C 18.985004 19.197655 14.952999 19.197655 14.952999 16.513581 C 14.952999 13.825578 18.985004 13.825578 18.985004 16.513581 " transform="matrix(0.994,0,0,0.994,0,0.023)"/>
<path style="fill-rule:evenodd;fill:rgb(87.841797%,58.03833%,41.175842%);fill-opacity:1;stroke-width:0.24;stroke-linecap:butt;stroke-linejoin:miter;stroke:rgb(87.841797%,58.03833%,41.175842%);stroke-opacity:1;stroke-miterlimit:4;" d="M 11.184293 18.549233 C 11.184293 21.237236 5.427094 21.237236 5.427094 18.549233 C 5.427094 15.86123 11.184293 15.86123 11.184293 18.549233 " transform="matrix(0.994,0,0,0.994,0,0.023)"/>
<path style="fill-rule:evenodd;fill:rgb(87.841797%,58.03833%,41.175842%);fill-opacity:1;stroke-width:0.24;stroke-linecap:butt;stroke-linejoin:miter;stroke:rgb(87.841797%,58.03833%,41.175842%);stroke-opacity:1;stroke-miterlimit:4;" d="M 24.573221 22.129307 C 24.573221 24.81731 20.541216 24.81731 20.541216 22.129307 C 20.541216 19.441304 24.573221 19.441304 24.573221 22.129307 " transform="matrix(0.994,0,0,0.994,0,0.023)"/>
<path style="fill-rule:evenodd;fill:rgb(89.01825%,61.959839%,47.058105%);fill-opacity:1;stroke-width:0.24;stroke-linecap:butt;stroke-linejoin:miter;stroke:rgb(89.01825%,61.959839%,47.058105%);stroke-opacity:1;stroke-miterlimit:4;" d="M 32.208878 18.863619 C 32.208878 23.312186 28.176874 23.312186 28.176874 18.863619 C 28.176874 14.415053 32.208878 14.415053 32.208878 18.863619 " transform="matrix(0.994,0,0,0.994,0,0.023)"/>
<path style="fill-rule:evenodd;fill:rgb(92.547607%,74.508667%,63.920593%);fill-opacity:1;stroke-width:0.24;stroke-linecap:butt;stroke-linejoin:miter;stroke:rgb(92.547607%,74.508667%,63.920593%);stroke-opacity:1;stroke-miterlimit:4;" d="M 37.801025 25.701522 C 37.801025 28.389525 33.76902 28.389525 33.76902 25.701522 C 33.76902 23.017448 37.801025 23.017448 37.801025 25.701522 " transform="matrix(0.994,0,0,0.994,0,0.023)"/>
<path style="fill-rule:evenodd;fill:rgb(92.547607%,74.508667%,63.920593%);fill-opacity:1;stroke-width:0.24;stroke-linecap:butt;stroke-linejoin:miter;stroke:rgb(92.547607%,74.508667%,63.920593%);stroke-opacity:1;stroke-miterlimit:4;" d="M 35.733935 33.360758 C 35.733935 36.048761 31.70193 36.048761 31.70193 33.360758 C 31.70193 30.672755 35.733935 30.672755 35.733935 33.360758 " transform="matrix(0.994,0,0,0.994,0,0.023)"/>
<path style="fill-rule:evenodd;fill:rgb(92.155457%,73.332214%,62.744141%);fill-opacity:1;stroke-width:0.24;stroke-linecap:butt;stroke-linejoin:miter;stroke:rgb(92.155457%,73.332214%,62.744141%);stroke-opacity:1;stroke-miterlimit:4;" d="M 45.432753 23.66587 C 45.432753 26.353873 41.396818 26.353873 41.396818 23.66587 C 41.396818 20.977867 45.432753 20.977867 45.432753 23.66587 " transform="matrix(0.994,0,0,0.994,0,0.023)"/>
<path style="fill-rule:evenodd;fill:rgb(92.155457%,73.332214%,62.744141%);fill-opacity:1;stroke-width:0.24;stroke-linecap:butt;stroke-linejoin:miter;stroke:rgb(92.155457%,73.332214%,62.744141%);stroke-opacity:1;stroke-miterlimit:4;" d="M 47.519492 16.030213 C 47.519492 18.718216 43.487487 18.718216 43.487487 16.030213 C 43.487487 13.34221 47.519492 13.34221 47.519492 16.030213 " transform="matrix(0.994,0,0,0.994,0,0.023)"/>
<path style="fill-rule:evenodd;fill:rgb(92.155457%,73.332214%,62.744141%);fill-opacity:1;stroke-width:0.24;stroke-linecap:butt;stroke-linejoin:miter;stroke:rgb(92.155457%,73.332214%,62.744141%);stroke-opacity:1;stroke-miterlimit:4;" d="M 55.15122 13.990631 C 55.15122 16.678634 51.119215 16.678634 51.119215 13.990631 C 51.119215 11.306558 55.15122 11.306558 55.15122 13.990631 " transform="matrix(0.994,0,0,0.994,0,0.023)"/>
<path style="fill-rule:evenodd;fill:rgb(92.155457%,73.332214%,62.744141%);fill-opacity:1;stroke-width:0.24;stroke-linecap:butt;stroke-linejoin:miter;stroke:rgb(92.155457%,73.332214%,62.744141%);stroke-opacity:1;stroke-miterlimit:4;" d="M 60.743366 19.610287 C 60.743366 22.29829 56.711362 22.29829 56.711362 19.610287 C 56.711362 16.922284 60.743366 16.922284 60.743366 19.610287 " transform="matrix(0.994,0,0,0.994,0,0.023)"/>
<path style="fill-rule:evenodd;fill:rgb(97.253418%,91.763306%,88.233948%);fill-opacity:1;stroke-width:0.24;stroke-linecap:butt;stroke-linejoin:miter;stroke:rgb(97.253418%,91.763306%,88.233948%);stroke-opacity:1;stroke-miterlimit:4;" d="M 68.375094 17.566776 C 68.375094 20.258709 64.34309 20.258709 64.34309 17.566776 C 64.34309 14.878773 68.375094 14.878773 68.375094 17.566776 " transform="matrix(0.994,0,0,0.994,0,0.023)"/>
<path style="fill-rule:evenodd;fill:rgb(97.253418%,91.763306%,88.233948%);fill-opacity:1;stroke-width:0.24;stroke-linecap:butt;stroke-linejoin:miter;stroke:rgb(97.253418%,91.763306%,88.233948%);stroke-opacity:1;stroke-miterlimit:4;" d="M 73.967241 23.182501 C 73.967241 25.870504 69.939166 25.870504 69.939166 23.182501 C 69.939166 20.494498 73.967241 20.494498 73.967241 23.182501 " transform="matrix(0.994,0,0,0.994,0,0.023)"/>
<path style="fill-rule:evenodd;fill:rgb(97.253418%,91.763306%,88.233948%);fill-opacity:1;stroke-width:0.24;stroke-linecap:butt;stroke-linejoin:miter;stroke:rgb(97.253418%,91.763306%,88.233948%);stroke-opacity:1;stroke-miterlimit:4;" d="M 81.626478 21.166499 C 81.626478 23.854502 77.594473 23.854502 77.594473 21.166499 C 77.594473 18.478496 81.626478 18.478496 81.626478 21.166499 " transform="matrix(0.994,0,0,0.994,0,0.023)"/>
<path style="fill-rule:evenodd;fill:rgb(97.253418%,91.763306%,88.233948%);fill-opacity:1;stroke-width:0.24;stroke-linecap:butt;stroke-linejoin:miter;stroke:rgb(97.253418%,91.763306%,88.233948%);stroke-opacity:1;stroke-miterlimit:4;" d="M 83.689638 13.511192 C 83.689638 16.199195 79.657633 16.199195 79.657633 13.511192 C 79.657633 10.823189 83.689638 10.823189 83.689638 13.511192 " transform="matrix(0.994,0,0,0.994,0,0.023)"/>
<path style="fill-rule:evenodd;fill:rgb(90.979004%,69.410706%,56.861877%);fill-opacity:1;stroke-width:0.24;stroke-linecap:butt;stroke-linejoin:miter;stroke:rgb(90.979004%,69.410706%,56.861877%);stroke-opacity:1;stroke-miterlimit:4;" d="M 91.321366 11.49519 C 91.321366 14.183193 87.289361 14.183193 87.289361 11.49519 C 87.289361 8.807187 91.321366 8.807187 91.321366 11.49519 " transform="matrix(0.994,0,0,0.994,0,0.023)"/>
<path style=" stroke:none;fill-rule:evenodd;fill:rgb(90.979004%,69.410706%,56.861877%);fill-opacity:1;" d="M 92.84375 3.863281 C 92.84375 6.535156 88.839844 6.535156 88.839844 3.863281 C 88.839844 1.191406 92.84375 1.191406 92.84375 3.863281 "/>
<g clip-path="url(#clip3)" clip-rule="nonzero">
<path style="fill:none;stroke-width:0.24;stroke-linecap:butt;stroke-linejoin:miter;stroke:rgb(90.979004%,69.410706%,56.861877%);stroke-opacity:1;stroke-miterlimit:4;" d="M 93.404175 3.863462 C 93.404175 6.551465 89.3761 6.551465 89.3761 3.863462 C 89.3761 1.175459 93.404175 1.175459 93.404175 3.863462 " transform="matrix(0.994,0,0,0.994,0,0.023)"/>
</g>
<path style="fill-rule:evenodd;fill:rgb(92.939758%,76.469421%,67.0578%);fill-opacity:1;stroke-width:0.24;stroke-linecap:butt;stroke-linejoin:miter;stroke:rgb(92.939758%,76.469421%,67.0578%);stroke-opacity:1;stroke-miterlimit:4;" d="M 96.909582 17.091266 C 96.909582 19.77534 92.877578 19.77534 92.877578 17.091266 C 92.877578 14.399334 96.909582 14.399334 96.909582 17.091266 " transform="matrix(0.994,0,0,0.994,0,0.023)"/>
<path style="fill-rule:evenodd;fill:rgb(92.939758%,76.469421%,67.0578%);fill-opacity:1;stroke-width:0.24;stroke-linecap:butt;stroke-linejoin:miter;stroke:rgb(92.939758%,76.469421%,67.0578%);stroke-opacity:1;stroke-miterlimit:4;" d="M 94.846422 24.742643 C 94.846422 27.434576 90.814418 27.434576 90.814418 24.742643 C 90.814418 22.05464 94.846422 22.05464 94.846422 24.742643 " transform="matrix(0.994,0,0,0.994,0,0.023)"/>
<path style="fill-rule:evenodd;fill:rgb(92.939758%,76.469421%,67.0578%);fill-opacity:1;stroke-width:0.24;stroke-linecap:butt;stroke-linejoin:miter;stroke:rgb(92.939758%,76.469421%,67.0578%);stroke-opacity:1;stroke-miterlimit:4;" d="M 100.442499 30.33479 C 100.442499 33.022793 96.406564 33.022793 96.406564 30.33479 C 96.406564 27.646787 100.442499 27.646787 100.442499 30.33479 " transform="matrix(0.994,0,0,0.994,0,0.023)"/>
<path style="fill-rule:evenodd;fill:rgb(92.939758%,76.469421%,67.0578%);fill-opacity:1;stroke-width:0.24;stroke-linecap:butt;stroke-linejoin:miter;stroke:rgb(92.939758%,76.469421%,67.0578%);stroke-opacity:1;stroke-miterlimit:4;" d="M 108.070297 28.318788 C 108.070297 31.006791 104.038292 31.006791 104.038292 28.318788 C 104.038292 25.634715 108.070297 25.634715 108.070297 28.318788 " transform="matrix(0.994,0,0,0.994,0,0.023)"/>
<path style="fill-rule:evenodd;fill:rgb(92.939758%,76.469421%,67.0578%);fill-opacity:1;stroke-width:0.24;stroke-linecap:butt;stroke-linejoin:miter;stroke:rgb(92.939758%,76.469421%,67.0578%);stroke-opacity:1;stroke-miterlimit:4;" d="M 113.878584 33.938443 C 113.878584 36.626446 109.846579 36.626446 109.846579 33.938443 C 109.846579 31.24651 113.878584 31.24651 113.878584 33.938443 " transform="matrix(0.994,0,0,0.994,0,0.023)"/>
<path style="fill-rule:evenodd;fill:rgb(92.939758%,76.469421%,67.0578%);fill-opacity:1;stroke-width:0.24;stroke-linecap:butt;stroke-linejoin:miter;stroke:rgb(92.939758%,76.469421%,67.0578%);stroke-opacity:1;stroke-miterlimit:4;" d="M 110.137387 20.663481 C 110.137387 23.351484 106.105382 23.351484 106.105382 20.663481 C 106.105382 17.975478 110.137387 17.975478 110.137387 20.663481 " transform="matrix(0.994,0,0,0.994,0,0.023)"/>
<path style="fill-rule:evenodd;fill:rgb(92.939758%,76.469421%,67.0578%);fill-opacity:1;stroke-width:0.24;stroke-linecap:butt;stroke-linejoin:miter;stroke:rgb(92.939758%,76.469421%,67.0578%);stroke-opacity:1;stroke-miterlimit:4;" d="M 104.564889 15.071334 C 104.564889 17.763267 100.536815 17.763267 100.536815 15.071334 C 100.536815 12.383331 104.564889 12.383331 104.564889 15.071334 " transform="matrix(0.994,0,0,0.994,0,0.023)"/>
<path style="fill-rule:evenodd;fill:rgb(97.253418%,91.763306%,88.233948%);fill-opacity:1;stroke-width:0.24;stroke-linecap:butt;stroke-linejoin:miter;stroke:rgb(97.253418%,91.763306%,88.233948%);stroke-opacity:1;stroke-miterlimit:4;" d="M 78.097491 7.922975 C 78.097491 10.607049 74.061557 10.607049 74.061557 7.922975 C 74.061557 5.231043 78.097491 5.231043 78.097491 7.922975 " transform="matrix(0.994,0,0,0.994,0,0.023)"/>
<path style="fill-rule:evenodd;fill:rgb(97.253418%,91.763306%,88.233948%);fill-opacity:1;stroke-width:0.24;stroke-linecap:butt;stroke-linejoin:miter;stroke:rgb(97.253418%,91.763306%,88.233948%);stroke-opacity:1;stroke-miterlimit:4;" d="M 70.465763 9.938978 C 70.465763 12.623051 66.433759 12.623051 66.433759 9.938978 C 66.433759 7.247045 70.465763 7.247045 70.465763 9.938978 " transform="matrix(0.994,0,0,0.994,0,0.023)"/>
<path style="fill-rule:evenodd;fill:rgb(92.155457%,73.332214%,62.744141%);fill-opacity:1;stroke-width:0.24;stroke-linecap:butt;stroke-linejoin:miter;stroke:rgb(92.155457%,73.332214%,62.744141%);stroke-opacity:1;stroke-miterlimit:4;" d="M 58.680206 27.238085 C 58.680206 29.930018 54.648202 29.930018 54.648202 27.238085 C 54.648202 24.550082 58.680206 24.550082 58.680206 27.238085 " transform="matrix(0.994,0,0,0.994,0,0.023)"/>
<path style="fill-rule:evenodd;fill:rgb(92.155457%,73.332214%,62.744141%);fill-opacity:1;stroke-width:0.24;stroke-linecap:butt;stroke-linejoin:miter;stroke:rgb(92.155457%,73.332214%,62.744141%);stroke-opacity:1;stroke-miterlimit:4;" d="M 51.024899 29.281596 C 51.024899 31.969599 46.992895 31.969599 46.992895 29.281596 C 46.992895 26.593593 51.024899 26.593593 51.024899 29.281596 " transform="matrix(0.994,0,0,0.994,0,0.023)"/>
<path style=" stroke:none;fill-rule:evenodd;fill:rgb(92.155457%,73.332214%,62.744141%);fill-opacity:1;" d="M 50.40625 36.738281 C 50.40625 39.410156 44.828125 39.410156 44.828125 36.738281 C 44.828125 34.0625 50.40625 34.0625 50.40625 36.738281 "/>
<g clip-path="url(#clip4)" clip-rule="nonzero">
<path style="fill:none;stroke-width:0.24;stroke-linecap:butt;stroke-linejoin:miter;stroke:rgb(92.155457%,73.332214%,62.744141%);stroke-opacity:1;stroke-miterlimit:4;" d="M 50.710513 36.936903 C 50.710513 39.624906 45.098717 39.624906 45.098717 36.936903 C 45.098717 34.24497 50.710513 34.24497 50.710513 36.936903 " transform="matrix(0.994,0,0,0.994,0,0.023)"/>
</g>
<path style="fill:none;stroke-width:0.48;stroke-linecap:butt;stroke-linejoin:miter;stroke:rgb(0%,0%,0%);stroke-opacity:1;stroke-miterlimit:4;" d="M 19.413355 10.512733 L 17.735318 16.725792 " transform="matrix(0.994,0,0,0.994,0,0.023)"/>
<path style="fill:none;stroke-width:0.48;stroke-linecap:butt;stroke-linejoin:miter;stroke:rgb(0%,0%,0%);stroke-opacity:1;stroke-miterlimit:4;" d="M 17.880722 10.10403 L 16.198755 16.32102 " transform="matrix(0.994,0,0,0.994,0,0.023)"/>
<path style="fill:none;stroke-width:0.48;stroke-linecap:butt;stroke-linejoin:miter;stroke:rgb(0%,0%,0%);stroke-opacity:1;stroke-miterlimit:4;" d="M 16.969002 16.513581 L 10.610538 18.191618 " transform="matrix(0.994,0,0,0.994,0,0.023)"/>
<path style="fill:none;stroke-width:0.48;stroke-linecap:butt;stroke-linejoin:miter;stroke:rgb(0%,0%,0%);stroke-opacity:1;stroke-miterlimit:4;" d="M 16.969002 16.513581 L 22.557218 22.129307 " transform="matrix(0.994,0,0,0.994,0,0.023)"/>
<path style="fill:none;stroke-width:0.48;stroke-linecap:butt;stroke-linejoin:miter;stroke:rgb(0%,0%,0%);stroke-opacity:1;stroke-miterlimit:4;" d="M 22.557218 22.129307 L 29.088594 20.376603 " transform="matrix(0.994,0,0,0.994,0,0.023)"/>
<path style="fill:none;stroke-width:0.48;stroke-linecap:butt;stroke-linejoin:miter;stroke:rgb(0%,0%,0%);stroke-opacity:1;stroke-miterlimit:4;" d="M 31.297158 21.213657 L 35.785023 25.701522 " transform="matrix(0.994,0,0,0.994,0,0.023)"/>
<path style="fill:none;stroke-width:0.48;stroke-linecap:butt;stroke-linejoin:miter;stroke:rgb(0%,0%,0%);stroke-opacity:1;stroke-miterlimit:4;" d="M 36.551339 25.894083 L 34.849723 32.158231 " transform="matrix(0.994,0,0,0.994,0,0.023)"/>
<path style="fill:none;stroke-width:0.48;stroke-linecap:butt;stroke-linejoin:miter;stroke:rgb(0%,0%,0%);stroke-opacity:1;stroke-miterlimit:4;" d="M 35.014776 25.489311 L 33.336739 31.725949 " transform="matrix(0.994,0,0,0.994,0,0.023)"/>
<path style="fill:none;stroke-width:0.48;stroke-linecap:butt;stroke-linejoin:miter;stroke:rgb(0%,0%,0%);stroke-opacity:1;stroke-miterlimit:4;" d="M 35.785023 25.701522 L 43.412821 23.66587 " transform="matrix(0.994,0,0,0.994,0,0.023)"/>
<path style="fill:none;stroke-width:0.48;stroke-linecap:butt;stroke-linejoin:miter;stroke:rgb(0%,0%,0%);stroke-opacity:1;stroke-miterlimit:4;" d="M 43.412821 23.66587 L 45.122296 17.425302 " transform="matrix(0.994,0,0,0.994,0,0.023)"/>
<path style="fill:none;stroke-width:0.48;stroke-linecap:butt;stroke-linejoin:miter;stroke:rgb(0%,0%,0%);stroke-opacity:1;stroke-miterlimit:4;" d="M 45.216612 23.135343 L 46.391631 18.769303 " transform="matrix(0.994,0,0,0.994,0,0.023)"/>
<path style="fill:none;stroke-width:0.48;stroke-linecap:butt;stroke-linejoin:miter;stroke:rgb(0%,0%,0%);stroke-opacity:1;stroke-miterlimit:4;" d="M 46.607772 15.743335 L 53.135218 13.990631 " transform="matrix(0.994,0,0,0.994,0,0.023)"/>
<path style="fill:none;stroke-width:0.48;stroke-linecap:butt;stroke-linejoin:miter;stroke:rgb(0%,0%,0%);stroke-opacity:1;stroke-miterlimit:4;" d="M 53.135218 13.990631 L 58.727364 19.610287 " transform="matrix(0.994,0,0,0.994,0,0.023)"/>
<path style="fill:none;stroke-width:0.48;stroke-linecap:butt;stroke-linejoin:miter;stroke:rgb(0%,0%,0%);stroke-opacity:1;stroke-miterlimit:4;" d="M 52.84834 15.959476 L 56.76245 19.893234 " transform="matrix(0.994,0,0,0.994,0,0.023)"/>
<path style="fill:none;stroke-width:0.48;stroke-linecap:butt;stroke-linejoin:miter;stroke:rgb(0%,0%,0%);stroke-opacity:1;stroke-miterlimit:4;" d="M 58.727364 19.610287 L 66.359092 17.566776 " transform="matrix(0.994,0,0,0.994,0,0.023)"/>
<path style="fill:none;stroke-width:0.48;stroke-linecap:butt;stroke-linejoin:miter;stroke:rgb(0%,0%,0%);stroke-opacity:1;stroke-miterlimit:4;" d="M 66.359092 17.566776 L 71.951239 23.182501 " transform="matrix(0.994,0,0,0.994,0,0.023)"/>
<path style="fill:none;stroke-width:0.48;stroke-linecap:butt;stroke-linejoin:miter;stroke:rgb(0%,0%,0%);stroke-opacity:1;stroke-miterlimit:4;" d="M 71.951239 23.182501 L 79.610475 21.166499 " transform="matrix(0.994,0,0,0.994,0,0.023)"/>
<path style="fill:none;stroke-width:0.48;stroke-linecap:butt;stroke-linejoin:miter;stroke:rgb(0%,0%,0%);stroke-opacity:1;stroke-miterlimit:4;" d="M 79.610475 21.166499 L 81.288512 14.902352 " transform="matrix(0.994,0,0,0.994,0,0.023)"/>
<path style="fill:none;stroke-width:0.48;stroke-linecap:butt;stroke-linejoin:miter;stroke:rgb(0%,0%,0%);stroke-opacity:1;stroke-miterlimit:4;" d="M 82.777918 13.224315 L 89.305363 11.49519 " transform="matrix(0.994,0,0,0.994,0,0.023)"/>
<path style="fill:none;stroke-width:0.48;stroke-linecap:butt;stroke-linejoin:miter;stroke:rgb(0%,0%,0%);stroke-opacity:1;stroke-miterlimit:4;" d="M 88.558696 11.279049 L 90.236733 5.06206 " transform="matrix(0.994,0,0,0.994,0,0.023)"/>
<path style="fill:none;stroke-width:0.48;stroke-linecap:butt;stroke-linejoin:miter;stroke:rgb(0%,0%,0%);stroke-opacity:1;stroke-miterlimit:4;" d="M 90.07168 11.687752 L 91.753647 5.494341 " transform="matrix(0.994,0,0,0.994,0,0.023)"/>
<path style="fill:none;stroke-width:0.48;stroke-linecap:butt;stroke-linejoin:miter;stroke:rgb(0%,0%,0%);stroke-opacity:1;stroke-miterlimit:4;" d="M 89.305363 11.49519 L 94.89358 17.091266 " transform="matrix(0.994,0,0,0.994,0,0.023)"/>
<path style="fill:none;stroke-width:0.48;stroke-linecap:butt;stroke-linejoin:miter;stroke:rgb(0%,0%,0%);stroke-opacity:1;stroke-miterlimit:4;" d="M 94.89358 17.091266 L 92.83042 24.742643 " transform="matrix(0.994,0,0,0.994,0,0.023)"/>
<path style="fill:none;stroke-width:0.48;stroke-linecap:butt;stroke-linejoin:miter;stroke:rgb(0%,0%,0%);stroke-opacity:1;stroke-miterlimit:4;" d="M 96.119687 18.647479 L 94.681369 23.999906 " transform="matrix(0.994,0,0,0.994,0,0.023)"/>
<path style="fill:none;stroke-width:0.48;stroke-linecap:butt;stroke-linejoin:miter;stroke:rgb(0%,0%,0%);stroke-opacity:1;stroke-miterlimit:4;" d="M 92.83042 24.742643 L 98.426496 30.33479 " transform="matrix(0.994,0,0,0.994,0,0.023)"/>
<path style="fill:none;stroke-width:0.48;stroke-linecap:butt;stroke-linejoin:miter;stroke:rgb(0%,0%,0%);stroke-opacity:1;stroke-miterlimit:4;" d="M 98.426496 30.33479 L 106.054295 28.318788 " transform="matrix(0.994,0,0,0.994,0,0.023)"/>
<path style="fill:none;stroke-width:0.48;stroke-linecap:butt;stroke-linejoin:miter;stroke:rgb(0%,0%,0%);stroke-opacity:1;stroke-miterlimit:4;" d="M 99.145655 28.511349 L 104.521661 27.096611 " transform="matrix(0.994,0,0,0.994,0,0.023)"/>
<path style="fill:none;stroke-width:0.48;stroke-linecap:butt;stroke-linejoin:miter;stroke:rgb(0%,0%,0%);stroke-opacity:1;stroke-miterlimit:4;" d="M 106.054295 28.318788 L 110.51858 32.783073 " transform="matrix(0.994,0,0,0.994,0,0.023)"/>
<path style="fill:none;stroke-width:0.48;stroke-linecap:butt;stroke-linejoin:miter;stroke:rgb(0%,0%,0%);stroke-opacity:1;stroke-miterlimit:4;" d="M 106.054295 28.318788 L 108.121385 20.663481 " transform="matrix(0.994,0,0,0.994,0,0.023)"/>
<path style="fill:none;stroke-width:0.48;stroke-linecap:butt;stroke-linejoin:miter;stroke:rgb(0%,0%,0%);stroke-opacity:1;stroke-miterlimit:4;" d="M 108.121385 20.663481 L 102.552817 15.071334 " transform="matrix(0.994,0,0,0.994,0,0.023)"/>
<path style="fill:none;stroke-width:0.48;stroke-linecap:butt;stroke-linejoin:miter;stroke:rgb(0%,0%,0%);stroke-opacity:1;stroke-miterlimit:4;" d="M 106.176119 20.954288 L 102.265939 17.0166 " transform="matrix(0.994,0,0,0.994,0,0.023)"/>
<path style="fill:none;stroke-width:0.48;stroke-linecap:butt;stroke-linejoin:miter;stroke:rgb(0%,0%,0%);stroke-opacity:1;stroke-miterlimit:4;" d="M 80.541845 12.40691 L 76.077559 7.922975 " transform="matrix(0.994,0,0,0.994,0,0.023)"/>
<path style="fill:none;stroke-width:0.48;stroke-linecap:butt;stroke-linejoin:miter;stroke:rgb(0%,0%,0%);stroke-opacity:1;stroke-miterlimit:4;" d="M 76.077559 7.922975 L 68.449761 9.938978 " transform="matrix(0.994,0,0,0.994,0,0.023)"/>
<path style="fill:none;stroke-width:0.48;stroke-linecap:butt;stroke-linejoin:miter;stroke:rgb(0%,0%,0%);stroke-opacity:1;stroke-miterlimit:4;" d="M 58.727364 19.610287 L 56.664204 27.238085 " transform="matrix(0.994,0,0,0.994,0,0.023)"/>
<path style="fill:none;stroke-width:0.48;stroke-linecap:butt;stroke-linejoin:miter;stroke:rgb(0%,0%,0%);stroke-opacity:1;stroke-miterlimit:4;" d="M 56.664204 27.238085 L 49.008897 29.281596 " transform="matrix(0.994,0,0,0.994,0,0.023)"/>
<path style="fill:none;stroke-width:0.48;stroke-linecap:butt;stroke-linejoin:miter;stroke:rgb(0%,0%,0%);stroke-opacity:1;stroke-miterlimit:4;" d="M 55.104062 26.015908 L 49.755565 27.434576 " transform="matrix(0.994,0,0,0.994,0,0.023)"/>
<path style="fill:none;stroke-width:0.48;stroke-linecap:butt;stroke-linejoin:miter;stroke:rgb(0%,0%,0%);stroke-opacity:1;stroke-miterlimit:4;" d="M 49.008897 29.281596 L 47.32693 35.518234 " transform="matrix(0.994,0,0,0.994,0,0.023)"/>
<path style="fill:none;stroke-width:0.48;stroke-linecap:butt;stroke-linejoin:miter;stroke:rgb(0%,0%,0%);stroke-opacity:1;stroke-miterlimit:4;" d="M 49.008897 29.281596 L 43.412821 23.66587 " transform="matrix(0.994,0,0,0.994,0,0.023)"/>
<path style="fill:none;stroke-width:0.48;stroke-linecap:butt;stroke-linejoin:miter;stroke:rgb(0%,0%,0%);stroke-opacity:1;stroke-miterlimit:4;" d="M 68.449761 9.938978 L 66.359092 17.566776 " transform="matrix(0.994,0,0,0.994,0,0.023)"/>
<path style="fill:none;stroke-width:0.48;stroke-linecap:butt;stroke-linejoin:miter;stroke:rgb(0%,0%,0%);stroke-opacity:1;stroke-miterlimit:4;" d="M 102.552817 15.071334 L 94.89358 17.091266 " transform="matrix(0.994,0,0,0.994,0,0.023)"/>
<path style=" stroke:none;fill-rule:nonzero;fill:rgb(0%,0%,0%);fill-opacity:1;" d="M 17.890625 8.847656 C 17.890625 8.5 17.980469 8.21875 18.15625 8.015625 C 18.332031 7.824219 18.582031 7.730469 18.917969 7.730469 C 19.25 7.730469 19.507812 7.824219 19.683594 8.015625 C 19.855469 8.21875 19.941406 8.5 19.941406 8.847656 C 19.941406 9.214844 19.855469 9.5 19.683594 9.707031 C 19.492188 9.917969 19.234375 10.019531 18.917969 10.019531 C 18.582031 10.019531 18.332031 9.917969 18.15625 9.707031 C 17.980469 9.5 17.890625 9.214844 17.890625 8.847656 M 18.917969 9.757812 C 19.140625 9.757812 19.316406 9.675781 19.441406 9.515625 C 19.570312 9.371094 19.636719 9.152344 19.636719 8.847656 C 19.636719 8.566406 19.570312 8.347656 19.441406 8.203125 C 19.316406 8.042969 19.140625 7.96875 18.917969 7.96875 C 18.695312 7.96875 18.519531 8.035156 18.394531 8.179688 C 18.265625 8.339844 18.203125 8.566406 18.203125 8.847656 C 18.203125 9.152344 18.265625 9.371094 18.394531 9.515625 C 18.519531 9.675781 18.695312 9.757812 18.917969 9.757812 "/>
<path style=" stroke:none;fill-rule:nonzero;fill:rgb(0%,0%,0%);fill-opacity:1;" d="M 6.226562 17.367188 L 6.535156 17.367188 L 6.535156 18.296875 L 7.679688 18.296875 L 7.679688 17.367188 L 7.96875 17.367188 L 7.96875 19.585938 L 7.679688 19.585938 L 7.679688 18.558594 L 6.535156 18.558594 L 6.535156 19.585938 L 6.226562 19.585938 L 6.226562 17.367188 "/>
<path style=" stroke:none;fill-rule:nonzero;fill:rgb(0%,0%,0%);fill-opacity:1;" d="M 8.230469 18.460938 C 8.230469 18.113281 8.316406 17.835938 8.492188 17.628906 C 8.679688 17.4375 8.9375 17.34375 9.257812 17.34375 C 9.589844 17.34375 9.84375 17.4375 10.015625 17.628906 C 10.195312 17.835938 10.28125 18.113281 10.28125 18.460938 C 10.28125 18.832031 10.195312 19.113281 10.015625 19.320312 C 9.84375 19.515625 9.589844 19.609375 9.257812 19.609375 C 8.9375 19.609375 8.679688 19.515625 8.492188 19.320312 C 8.316406 19.113281 8.230469 18.832031 8.230469 18.460938 M 9.257812 19.371094 C 9.476562 19.371094 9.652344 19.289062 9.78125 19.128906 C 9.910156 18.988281 9.972656 18.765625 9.972656 18.460938 C 9.972656 18.179688 9.910156 17.953125 9.78125 17.792969 C 9.652344 17.652344 9.476562 17.582031 9.257812 17.582031 C 9.035156 17.582031 8.855469 17.652344 8.730469 17.792969 C 8.621094 17.953125 8.566406 18.179688 8.566406 18.460938 C 8.566406 18.765625 8.621094 18.988281 8.730469 19.128906 C 8.855469 19.289062 9.035156 19.371094 9.257812 19.371094 "/>
<path style=" stroke:none;fill-rule:nonzero;fill:rgb(0%,0%,0%);fill-opacity:1;" d="M 29.53125 18.871094 L 30.25 20.0625 C 30.296875 20.140625 30.359375 20.253906 30.441406 20.394531 C 30.519531 20.539062 30.558594 20.609375 30.558594 20.609375 L 30.558594 18.871094 L 30.867188 18.871094 L 30.867188 21.109375 L 30.558594 21.109375 L 29.773438 19.824219 C 29.707031 19.714844 29.644531 19.601562 29.582031 19.492188 C 29.515625 19.378906 29.476562 19.304688 29.464844 19.273438 L 29.464844 21.109375 L 29.175781 21.109375 L 29.175781 18.871094 L 29.53125 18.871094 "/>
<path style=" stroke:none;fill-rule:nonzero;fill:rgb(0%,0%,0%);fill-opacity:1;" d="M 29.152344 16.4375 L 29.4375 16.4375 L 29.4375 17.367188 L 30.585938 17.367188 L 30.585938 16.4375 L 30.890625 16.4375 L 30.890625 18.652344 L 30.585938 18.652344 L 30.585938 17.628906 L 29.4375 17.628906 L 29.4375 18.652344 L 29.152344 18.652344 L 29.152344 16.4375 "/>
<path style=" stroke:none;fill-rule:nonzero;fill:rgb(0%,0%,0%);fill-opacity:1;" d="M 32.492188 33.160156 C 32.492188 32.808594 32.582031 32.53125 32.753906 32.324219 C 32.929688 32.132812 33.183594 32.035156 33.515625 32.035156 C 33.835938 32.035156 34.089844 32.132812 34.28125 32.324219 C 34.457031 32.53125 34.546875 32.808594 34.546875 33.160156 C 34.546875 33.523438 34.449219 33.8125 34.257812 34.015625 C 34.082031 34.222656 33.835938 34.328125 33.515625 34.328125 C 33.183594 34.328125 32.929688 34.222656 32.753906 34.015625 C 32.582031 33.8125 32.492188 33.523438 32.492188 33.160156 M 33.515625 34.0625 C 33.742188 34.0625 33.917969 33.992188 34.039062 33.851562 C 34.152344 33.691406 34.207031 33.460938 34.207031 33.160156 C 34.207031 32.871094 34.152344 32.65625 34.039062 32.515625 C 33.917969 32.355469 33.742188 32.277344 33.515625 32.277344 C 33.277344 32.277344 33.105469 32.355469 32.992188 32.515625 C 32.863281 32.65625 32.800781 32.871094 32.800781 33.160156 C 32.800781 33.460938 32.863281 33.691406 32.992188 33.851562 C 33.105469 33.992188 33.277344 34.0625 33.515625 34.0625 "/>
<path style=" stroke:none;fill-rule:nonzero;fill:rgb(0%,0%,0%);fill-opacity:1;" d="M 44.730469 14.835938 L 45.445312 16.03125 C 45.511719 16.109375 45.574219 16.214844 45.632812 16.339844 C 45.714844 16.484375 45.761719 16.5625 45.777344 16.578125 L 45.777344 14.835938 L 46.066406 14.835938 L 46.066406 17.078125 L 45.753906 17.078125 L 44.964844 15.789062 C 44.90625 15.683594 44.84375 15.570312 44.777344 15.457031 C 44.714844 15.34375 44.675781 15.273438 44.660156 15.242188 L 44.660156 17.078125 L 44.375 17.078125 L 44.375 14.835938 L 44.730469 14.835938 "/>
<path style=" stroke:none;fill-rule:nonzero;fill:rgb(0%,0%,0%);fill-opacity:1;" d="M 80.679688 12.355469 L 81.417969 13.527344 C 81.46875 13.605469 81.53125 13.71875 81.613281 13.863281 C 81.691406 14 81.730469 14.074219 81.730469 14.074219 L 81.730469 12.355469 L 82.015625 12.355469 L 82.015625 14.574219 L 81.707031 14.574219 L 80.945312 13.285156 C 80.878906 13.191406 80.816406 13.082031 80.75 12.953125 C 80.6875 12.839844 80.648438 12.769531 80.632812 12.738281 L 80.632812 14.574219 L 80.324219 14.574219 L 80.324219 12.355469 L 80.679688 12.355469 "/>
<path style=" stroke:none;fill-rule:nonzero;fill:rgb(0%,0%,0%);fill-opacity:1;" d="M 89.816406 3.863281 C 89.816406 3.496094 89.90625 3.21875 90.082031 3.027344 C 90.257812 2.820312 90.507812 2.71875 90.84375 2.71875 C 91.160156 2.71875 91.410156 2.820312 91.585938 3.027344 C 91.757812 3.21875 91.84375 3.496094 91.84375 3.863281 C 91.84375 4.210938 91.757812 4.492188 91.585938 4.699219 C 91.410156 4.902344 91.160156 5.007812 90.84375 5.007812 C 90.507812 5.007812 90.257812 4.902344 90.082031 4.699219 C 89.90625 4.492188 89.816406 4.210938 89.816406 3.863281 M 90.84375 4.75 C 91.066406 4.75 91.234375 4.675781 91.34375 4.53125 C 91.472656 4.371094 91.539062 4.148438 91.539062 3.863281 C 91.539062 3.5625 91.472656 3.339844 91.34375 3.195312 C 91.234375 3.050781 91.066406 2.980469 90.84375 2.980469 C 90.605469 2.980469 90.421875 3.050781 90.296875 3.195312 C 90.183594 3.339844 90.128906 3.5625 90.128906 3.863281 C 90.128906 4.148438 90.183594 4.371094 90.296875 4.53125 C 90.421875 4.675781 90.605469 4.75 90.84375 4.75 "/>
<path style=" stroke:none;fill-rule:nonzero;fill:rgb(0%,0%,0%);fill-opacity:1;" d="M 110.121094 33.828125 C 110.121094 33.445312 110.207031 33.160156 110.378906 32.96875 C 110.554688 32.777344 110.804688 32.679688 111.121094 32.679688 C 111.441406 32.679688 111.679688 32.792969 111.835938 33.015625 L 111.625 33.183594 C 111.511719 33.023438 111.34375 32.945312 111.121094 32.945312 C 110.898438 32.945312 110.730469 33.015625 110.621094 33.160156 C 110.492188 33.316406 110.429688 33.539062 110.429688 33.828125 C 110.429688 34.113281 110.492188 34.335938 110.621094 34.496094 C 110.746094 34.636719 110.933594 34.707031 111.167969 34.707031 C 111.328125 34.707031 111.503906 34.660156 111.691406 34.570312 L 111.789062 34.804688 C 111.707031 34.851562 111.605469 34.890625 111.480469 34.925781 C 111.367188 34.957031 111.25 34.972656 111.121094 34.972656 C 110.804688 34.972656 110.554688 34.867188 110.378906 34.660156 C 110.207031 34.472656 110.121094 34.191406 110.121094 33.828125 "/>
<path style=" stroke:none;fill-rule:nonzero;fill:rgb(0%,0%,0%);fill-opacity:1;" d="M 111.957031 32.539062 L 112.246094 32.539062 L 112.246094 34.925781 L 111.957031 34.925781 Z M 111.957031 32.539062 "/>
<path style=" stroke:none;fill-rule:nonzero;fill:rgb(0%,0%,0%);fill-opacity:1;" d="M 45.632812 36.710938 C 45.632812 36.363281 45.722656 36.09375 45.898438 35.90625 C 46.074219 35.695312 46.328125 35.59375 46.664062 35.59375 C 46.996094 35.59375 47.25 35.695312 47.425781 35.90625 C 47.601562 36.09375 47.6875 36.363281 47.6875 36.710938 C 47.6875 37.082031 47.601562 37.363281 47.425781 37.574219 C 47.234375 37.777344 46.980469 37.882812 46.664062 37.882812 C 46.328125 37.882812 46.074219 37.777344 45.898438 37.574219 C 45.722656 37.363281 45.632812 37.082031 45.632812 36.710938 M 46.664062 37.621094 C 46.886719 37.621094 47.058594 37.550781 47.1875 37.40625 C 47.316406 37.246094 47.378906 37.015625 47.378906 36.710938 C 47.378906 36.429688 47.316406 36.210938 47.1875 36.070312 C 47.058594 35.925781 46.886719 35.855469 46.664062 35.855469 C 46.4375 35.855469 46.265625 35.925781 46.136719 36.070312 C 46.011719 36.210938 45.945312 36.429688 45.945312 36.710938 C 45.945312 37.015625 46.011719 37.246094 46.136719 37.40625 C 46.265625 37.550781 46.4375 37.621094 46.664062 37.621094 "/>
<path style=" stroke:none;fill-rule:nonzero;fill:rgb(0%,0%,0%);fill-opacity:1;" d="M 47.832031 35.617188 L 48.144531 35.617188 L 48.144531 36.574219 L 49.289062 36.574219 L 49.289062 35.617188 L 49.59375 35.617188 L 49.59375 37.832031 L 49.289062 37.832031 L 49.289062 36.808594 L 48.144531 36.808594 L 48.144531 37.832031 L 47.832031 37.832031 L 47.832031 35.617188 "/>
</g>
</svg>
